<svg xmlns="http://www.w3.org/2000/svg" width="168" height="48" viewBox="0 0 168 48">
  <path fill="#FFF" d="M139.330438,22.4680851 C144.371101,22.4680851 148.394789,24.1524823 151.4015,27.5212766 L151.4015,27.5212766 L149.411765,28.7845745 L149.121546,28.4939108 C146.393697,25.828644 143.129994,24.4960106 139.330438,24.4960106 C135.969996,24.4960106 133.162258,25.4379433 130.907225,27.3218085 C128.431109,29.3829787 127.193052,32.0203901 127.193052,35.2340426 C127.193052,38.4255319 128.309514,41.0075355 130.54244,42.9800532 C132.775365,44.9525709 135.704698,45.9388298 139.330438,45.9388298 C142.44769,45.9388298 145.012238,45.2129876 147.024082,43.7613032 C149.035926,42.3096188 150.395578,40.1985816 151.10304,37.4281915 L151.10304,37.4281915 L138.368733,37.4281915 L138.368733,35.3337766 L153.722858,35.3337766 L153.686133,35.7675373 C153.404117,38.7726091 152.598356,41.1213733 151.268851,42.8138298 C148.527438,46.2712766 144.547967,48 139.330438,48 C135.284643,48 131.924201,46.891844 129.249112,44.6755319 C126.330833,42.2597518 124.871694,39.1125887 124.871694,35.2340426 C124.871694,31.4219858 126.341887,28.2969858 129.282274,25.8590426 C132.001579,23.5984043 135.350967,22.4680851 139.330438,22.4680851 Z M34.6703514,23.2327128 L35.0342662,23.2377918 C37.0706404,23.2953544 38.6682458,23.8421986 39.8270825,24.8783245 C41.0540861,25.9753989 41.6675878,27.4769504 41.6675878,29.3829787 C41.6675878,32.0647163 40.274773,33.9264184 37.4891433,34.9680851 C40.7611528,36.0097518 42.3971575,38.0044326 42.3971575,40.9521277 C42.3971575,42.9024823 41.7228583,44.4483599 40.3742598,45.5897606 C39.0256613,46.7311613 37.1796289,47.3018617 34.8361627,47.3018617 L34.8361627,47.3018617 L16,47.3018617 L16,23.2327128 L34.6703514,23.2327128 Z M67.4678247,23.2327128 L67.8131348,23.2381001 C69.862397,23.3027476 71.5048933,23.9492231 72.7406238,25.1775266 C74.0450059,26.4740691 74.697197,28.2194149 74.697197,30.4135638 C74.697197,32.474734 74.0726411,34.1203457 72.8235294,35.3503989 C71.5744177,36.5804521 69.7891828,37.2730496 67.4678247,37.4281915 L67.4678247,37.4281915 L74.7635215,47.3018617 L72.1437031,47.3018617 L64.6158705,37.4281915 L51.5167785,37.4281915 L51.5167785,47.3018617 L49.3612317,47.3018617 L49.3612317,23.2327128 L67.4678247,23.2327128 Z M83.949467,23.2327128 L83.949467,47.3018617 L81.7939203,47.3018617 L81.7939203,23.2327128 L83.949467,23.2327128 Z M106.599289,23.2327128 L107.01773,23.236932 C110.754956,23.3128774 113.716147,24.4140862 115.901303,26.5405585 C118.16739,28.745789 119.300434,31.7433511 119.300434,35.5332447 C119.300434,38.9242021 118.16739,41.7333777 115.901303,43.9607713 C113.635215,46.1881649 110.799842,47.3018617 107.395184,47.3018617 L107.395184,47.3018617 L92.3063561,47.3018617 L92.3063561,23.2327128 L106.599289,23.2327128 Z M183.071457,23.2327128 L183.071457,25.3271277 L162.842479,25.3271277 L162.842479,33.5053191 L176.903277,33.5053191 L176.903277,35.599734 L162.842479,35.599734 L162.842479,45.2074468 L184,45.2074468 L184,47.3018617 L160.686932,47.3018617 L160.686932,23.2327128 L183.071457,23.2327128 Z M34.8693249,36.1316489 L18.1555468,36.1316489 L18.1555468,45.2074468 L34.8030004,45.2074468 C38.3624161,45.2074468 40.142124,43.7446809 40.142124,40.8191489 C40.142124,39.3785461 39.6667983,38.2371454 38.7161469,37.3949468 C37.7654955,36.5527482 36.4832215,36.1316489 34.8693249,36.1316489 L34.8693249,36.1316489 Z M106.930912,25.3271277 L94.4619029,25.3271277 L94.4619029,45.2074468 L107.560995,45.2074468 C110.258192,45.2074468 112.491117,44.2433511 114.259771,42.3151596 C115.9621,40.4534574 116.813265,38.1595745 116.813265,35.4335106 C116.813265,32.4193262 115.901303,29.981383 114.077379,28.1196809 C112.253454,26.2579787 109.871299,25.3271277 106.930912,25.3271277 L106.930912,25.3271277 Z M66.5061192,25.3271277 L51.5167785,25.3271277 L51.5167785,35.3337766 L67.3020134,35.3337766 C68.8938018,35.3337766 70.1263324,34.896055 70.9996052,34.0206117 C71.872878,33.1451684 72.3095144,31.9095745 72.3095144,30.3138298 C72.3095144,26.9893617 70.3750493,25.3271277 66.5061192,25.3271277 L66.5061192,25.3271277 Z M35.0351362,25.3271277 L18.1555468,25.3271277 L18.1555468,34.037234 L34.5377023,34.037234 C35.9305172,34.037234 37.0801421,33.6050532 37.9865772,32.7406915 C38.8930122,31.8763298 39.3462298,30.7792553 39.3462298,29.4494681 C39.3462298,28.2304965 38.9538097,27.2386968 38.1689696,26.4740691 C37.3841295,25.7094415 36.3395184,25.3271277 35.0351362,25.3271277 L35.0351362,25.3271277 Z M119.521886,0.000521419067 L119.521886,8.12646513 C119.521886,9.71306887 121.224999,10.781978 124.21912,10.781978 C127.212492,10.781978 128.914855,9.69444676 128.914855,8.12646513 L128.914855,0.000521419067 L132.070071,0.000521419067 L132.070071,8.55402877 C132.070071,11.2803056 129.076699,13.2765957 124.21912,13.2765957 C119.360791,13.2765957 116.367419,11.2803056 116.367419,8.55402877 L116.367419,0.000521419067 L119.521886,0.000521419067 Z M26.9522192,0.000297953752 C28.4223057,0.000297953752 29.8024786,0.588756615 30.6626515,1.53327001 C31.2365997,2.15599335 31.5408072,2.92247938 31.5408072,3.72471986 C31.5408072,4.79362895 31.1294527,5.56011497 30.2145824,6.20220531 C31.505591,6.91431478 32.2226516,7.85882818 32.2226516,9.19589564 C32.2226516,11.3344587 30.358444,12.9024403 27.3111241,12.9024403 L16,12.9024403 L16,0.000297953752 L26.9522192,0.000297953752 Z M52.8835107,0.000297953752 C55.8409171,0.000297953752 57.7763061,1.71129738 57.7763061,4.22379239 C57.7763061,6.25583699 56.7730208,7.57428234 54.8188997,8.10910933 L58.1172283,12.9024403 L54.5678911,12.9024403 L51.3774588,8.34002349 L45.4086979,8.34002349 L45.4086979,12.9024403 L42.2534817,12.9024403 L42.2534817,0.000297953752 L52.8835107,0.000297953752 Z M77.2873958,-2.98427949e-13 L84.1702777,12.9028873 L80.9798454,12.9028873 L79.4917762,10.1222339 L71.1740239,10.1222339 L69.686704,12.9028873 L66.4955224,12.9028873 L73.3971363,-2.98427949e-13 L77.2873958,-2.98427949e-13 Z M92.7970329,0.000223465314 L98.4083875,9.44535742 L104.018243,0.000223465314 L107.550347,0.000223465314 L99.8784739,12.9023658 L96.938301,12.9023658 L89.2664277,0.000223465314 L92.7970329,0.000223465314 Z M153.446117,0.000297953752 C156.403524,0.000297953752 158.339662,1.71129738 158.339662,4.22379239 C158.339662,6.25583699 157.335628,7.57428234 155.382256,8.10910933 L158.679835,12.9024403 L155.131247,12.9024403 L151.940066,8.34002349 L145.971305,8.34002349 L145.971305,12.9024403 L142.816088,12.9024403 L142.816088,0.000297953752 L153.446117,0.000297953752 Z M182.479801,0.000223465314 L182.479801,2.47770892 L171.562798,2.47770892 L171.562798,5.11534451 L179.146256,5.11534451 L179.146256,7.59134019 L171.562798,7.59134019 L171.562798,10.4248804 L182.981818,10.4248804 L182.981818,12.9023658 L168.408331,12.9023658 L168.408331,0.000223465314 L182.479801,0.000223465314 Z M27.1140636,7.50277344 L19.1552162,7.50277344 L19.1552162,10.4249549 L27.0601154,10.4249549 C28.3323921,10.4249549 29.0142365,9.90874999 29.0142365,9.03500061 C29.0142365,8.12624167 28.2964267,7.50277344 27.1140636,7.50277344 Z M75.315292,2.35234488 L72.4650326,7.64549329 L78.1655514,7.64549329 L75.315292,2.35234488 Z M52.5246058,2.47778341 L45.4086979,2.47778341 L45.4086979,5.86328292 L52.5425885,5.86328292 C53.886796,5.86328292 54.6578046,5.20406024 54.6578046,4.13440627 C54.6578046,3.15413842 53.8695626,2.47778341 52.5246058,2.47778341 Z M153.087213,2.47778341 L145.971305,2.47778341 L145.971305,5.86328292 L153.105195,5.86328292 C154.449403,5.86328292 155.220411,5.20406024 155.220411,4.13440627 C155.220411,3.15413842 154.432169,2.47778341 153.087213,2.47778341 Z M26.9342365,2.47778341 L19.1552162,2.47778341 L19.1552162,5.02528799 L27.0601154,5.02528799 C27.7591933,5.02528799 28.3503748,4.47258378 28.3503748,3.72471986 C28.3503748,2.99398828 27.777176,2.47778341 26.9342365,2.47778341 Z" transform="translate(-16)"/>
</svg>
